<!-- Generated by IcoMoon.io -->
<svg version="1.1" xmlns="http://www.w3.org/2000/svg" width="512" height="512" viewBox="0 0 512 512">
<title></title>
<g id="icomoon-ignore">
</g>
<path fill="#000" d="M480 0h-448c-17.664 0-32 14.336-32 32v320c0 17.664 14.336 32 32 32h128l-64 128h16l115.2-128h57.6l115.2 128h16l-64-128h128c17.664 0 32-14.336 32-32v-320c0-17.664-14.336-32-32-32zM480 336c0 8.848-7.152 16-16 16h-416c-8.848 0-16-7.152-16-16v-288c0-8.848 7.152-16 16-16h416c8.848 0 16 7.152 16 16v288zM334.048 250.096l-72.336-186.064-79.008 148.64-44.096-45.36-74.608 46.496 21.056 12.128 47.808-29.792 57.68 59.392 66.8-125.648 73.856 190.064 62.992-132.608 25.664 54.624 28.144-4.72-53.664-114.112-60.288 126.96z"></path>
</svg>
